<svg xmlns="http://www.w3.org/2000/svg" width="67.558" height="149.332" viewBox="0 0 67.558 149.332">
  <g id="Group_61" data-name="Group 61" transform="translate(67.558 149.332) rotate(180)">
    <g id="Group_39" data-name="Group 39" transform="translate(0 56.864)">
      <rect id="Rectangle_299" data-name="Rectangle 299" width="7.125" height="7.119" transform="translate(21.37 7.125)" fill="#8e0d3c"/>
      <rect id="Rectangle_300" data-name="Rectangle 300" width="7.119" height="7.119" transform="translate(7.125 7.125)" fill="#8e0d3c"/>
      <rect id="Rectangle_301" data-name="Rectangle 301" width="7.125" height="7.119" transform="translate(28.496 14.245)" fill="#8e0d3c"/>
      <rect id="Rectangle_302" data-name="Rectangle 302" width="7.125" height="7.119" transform="translate(21.37 21.364)" fill="#8e0d3c"/>
      <rect id="Rectangle_303" data-name="Rectangle 303" width="7.125" height="7.119" transform="translate(21.37 14.245)" fill="#8e0d3c"/>
      <rect id="Rectangle_304" data-name="Rectangle 304" width="7.125" height="7.119" transform="translate(14.245 28.484)" fill="#8e0d3c"/>
      <rect id="Rectangle_305" data-name="Rectangle 305" width="7.125" height="7.119" transform="translate(14.245 21.364)" fill="#8e0d3c"/>
      <rect id="Rectangle_306" data-name="Rectangle 306" width="7.125" height="7.119" transform="translate(14.245 7.125)" fill="#8e0d3c"/>
      <rect id="Rectangle_307" data-name="Rectangle 307" width="7.125" height="7.125" transform="translate(14.245 0)" fill="#8e0d3c"/>
      <rect id="Rectangle_308" data-name="Rectangle 308" width="7.119" height="7.119" transform="translate(7.125 21.364)" fill="#8e0d3c"/>
      <rect id="Rectangle_309" data-name="Rectangle 309" width="7.119" height="7.119" transform="translate(7.125 14.245)" fill="#8e0d3c"/>
      <rect id="Rectangle_310" data-name="Rectangle 310" width="7.125" height="7.119" transform="translate(0 14.245)" fill="#8e0d3c"/>
    </g>
    <g id="Group_40" data-name="Group 40" transform="translate(40.423 122.181) rotate(-90)">
      <rect id="Rectangle_311" data-name="Rectangle 311" width="4.526" height="4.522" transform="translate(90.502 0)" fill="#0e443a"/>
      <rect id="Rectangle_312" data-name="Rectangle 312" width="4.522" height="4.522" transform="translate(85.98 4.522)" fill="#0e443a"/>
      <rect id="Rectangle_313" data-name="Rectangle 313" width="4.526" height="4.522" transform="translate(81.454 9.044)" fill="#0e443a"/>
      <rect id="Rectangle_314" data-name="Rectangle 314" width="4.525" height="4.522" transform="translate(76.929 13.565)" fill="#0e443a"/>
      <rect id="Rectangle_315" data-name="Rectangle 315" width="4.526" height="4.522" transform="translate(72.403 18.087)" fill="#0e443a"/>
      <rect id="Rectangle_316" data-name="Rectangle 316" width="4.526" height="4.526" transform="translate(67.877 22.609)" fill="#0e443a"/>
      <rect id="Rectangle_317" data-name="Rectangle 317" width="4.525" height="4.526" transform="translate(63.352 22.609)" fill="#0e443a"/>
      <rect id="Rectangle_318" data-name="Rectangle 318" width="4.526" height="4.526" transform="translate(58.826 22.609)" fill="#0e443a"/>
      <rect id="Rectangle_319" data-name="Rectangle 319" width="4.522" height="4.526" transform="translate(54.304 22.609)" fill="#0e443a"/>
      <rect id="Rectangle_320" data-name="Rectangle 320" width="4.526" height="4.526" transform="translate(49.779 22.609)" fill="#0e443a"/>
      <rect id="Rectangle_321" data-name="Rectangle 321" width="4.525" height="4.526" transform="translate(45.253 22.609)" fill="#0e443a"/>
      <rect id="Rectangle_322" data-name="Rectangle 322" width="4.525" height="4.522" transform="translate(45.253 18.087)" fill="#0e443a"/>
      <rect id="Rectangle_323" data-name="Rectangle 323" width="4.525" height="4.522" transform="translate(45.253 13.565)" fill="#0e443a"/>
      <rect id="Rectangle_324" data-name="Rectangle 324" width="4.525" height="4.522" transform="translate(45.253 9.044)" fill="#0e443a"/>
      <rect id="Rectangle_325" data-name="Rectangle 325" width="4.526" height="4.526" transform="translate(40.727 22.609)" fill="#0e443a"/>
      <rect id="Rectangle_326" data-name="Rectangle 326" width="4.526" height="4.526" transform="translate(36.202 22.609)" fill="#0e443a"/>
      <rect id="Rectangle_327" data-name="Rectangle 327" width="4.525" height="4.526" transform="translate(31.676 22.609)" fill="#0e443a"/>
      <rect id="Rectangle_328" data-name="Rectangle 328" width="4.526" height="4.526" transform="translate(27.15 22.609)" fill="#0e443a"/>
      <rect id="Rectangle_329" data-name="Rectangle 329" width="4.522" height="4.526" transform="translate(22.628 22.609)" fill="#0e443a"/>
      <rect id="Rectangle_330" data-name="Rectangle 330" width="4.526" height="4.522" transform="translate(18.103 18.087)" fill="#0e443a"/>
      <rect id="Rectangle_331" data-name="Rectangle 331" width="4.526" height="4.522" transform="translate(13.577 13.565)" fill="#0e443a"/>
      <rect id="Rectangle_332" data-name="Rectangle 332" width="4.525" height="4.522" transform="translate(9.051 9.044)" fill="#0e443a"/>
      <rect id="Rectangle_333" data-name="Rectangle 333" width="4.526" height="4.522" transform="translate(4.526 4.522)" fill="#0e443a"/>
      <rect id="Rectangle_334" data-name="Rectangle 334" width="4.526" height="4.522" transform="translate(0 0)" fill="#0e443a"/>
    </g>
    <g id="Group_43" data-name="Group 43" transform="translate(17.81 131.229) rotate(-90)">
      <g id="Group_41" data-name="Group 41" transform="translate(90.502)">
        <rect id="Rectangle_335" data-name="Rectangle 335" width="4.525" height="4.522" transform="translate(18.099 9.048)" fill="#8e0d3c"/>
        <rect id="Rectangle_336" data-name="Rectangle 336" width="4.526" height="4.522" transform="translate(13.573 13.569)" fill="#8e0d3c"/>
        <rect id="Rectangle_337" data-name="Rectangle 337" width="4.526" height="4.522" transform="translate(13.573 9.048)" fill="#8e0d3c"/>
        <rect id="Rectangle_338" data-name="Rectangle 338" width="4.526" height="4.522" transform="translate(13.573 4.526)" fill="#8e0d3c"/>
        <rect id="Rectangle_339" data-name="Rectangle 339" width="4.526" height="4.522" transform="translate(9.048 18.091)" fill="#8e0d3c"/>
        <rect id="Rectangle_340" data-name="Rectangle 340" width="4.526" height="4.522" transform="translate(9.048 13.569)" fill="#8e0d3c"/>
        <rect id="Rectangle_341" data-name="Rectangle 341" width="4.526" height="4.522" transform="translate(9.048 4.526)" fill="#8e0d3c"/>
        <rect id="Rectangle_342" data-name="Rectangle 342" width="4.526" height="4.526" transform="translate(9.048)" fill="#8e0d3c"/>
        <rect id="Rectangle_343" data-name="Rectangle 343" width="4.522" height="4.522" transform="translate(4.525 13.569)" fill="#8e0d3c"/>
        <rect id="Rectangle_344" data-name="Rectangle 344" width="4.522" height="4.522" transform="translate(4.525 9.048)" fill="#8e0d3c"/>
        <rect id="Rectangle_345" data-name="Rectangle 345" width="4.522" height="4.522" transform="translate(4.525 4.526)" fill="#8e0d3c"/>
        <rect id="Rectangle_346" data-name="Rectangle 346" width="4.526" height="4.522" transform="translate(0 9.048)" fill="#8e0d3c"/>
      </g>
      <g id="Group_42" data-name="Group 42" transform="translate(0)">
        <rect id="Rectangle_347" data-name="Rectangle 347" width="4.525" height="4.522" transform="translate(18.099 9.048)" fill="#8e0d3c"/>
        <rect id="Rectangle_348" data-name="Rectangle 348" width="4.526" height="4.522" transform="translate(13.573 13.569)" fill="#8e0d3c"/>
        <rect id="Rectangle_349" data-name="Rectangle 349" width="4.526" height="4.522" transform="translate(13.573 9.048)" fill="#8e0d3c"/>
        <rect id="Rectangle_350" data-name="Rectangle 350" width="4.526" height="4.522" transform="translate(13.573 4.526)" fill="#8e0d3c"/>
        <rect id="Rectangle_351" data-name="Rectangle 351" width="4.526" height="4.522" transform="translate(9.048 18.091)" fill="#8e0d3c"/>
        <rect id="Rectangle_352" data-name="Rectangle 352" width="4.526" height="4.522" transform="translate(9.048 13.569)" fill="#8e0d3c"/>
        <rect id="Rectangle_353" data-name="Rectangle 353" width="4.526" height="4.522" transform="translate(9.048 4.526)" fill="#8e0d3c"/>
        <rect id="Rectangle_354" data-name="Rectangle 354" width="4.526" height="4.526" transform="translate(9.048)" fill="#8e0d3c"/>
        <rect id="Rectangle_355" data-name="Rectangle 355" width="4.522" height="4.522" transform="translate(4.525 13.569)" fill="#8e0d3c"/>
        <rect id="Rectangle_356" data-name="Rectangle 356" width="4.522" height="4.522" transform="translate(4.525 9.048)" fill="#8e0d3c"/>
        <rect id="Rectangle_357" data-name="Rectangle 357" width="4.522" height="4.522" transform="translate(4.525 4.526)" fill="#8e0d3c"/>
        <rect id="Rectangle_358" data-name="Rectangle 358" width="4.526" height="4.522" transform="translate(0 9.048)" fill="#8e0d3c"/>
      </g>
    </g>
    <g id="Group_44" data-name="Group 44" transform="translate(17.814 18.103) rotate(-90)">
      <rect id="Rectangle_359" data-name="Rectangle 359" width="4.526" height="4.522" transform="translate(4.526 9.044)" fill="#0e443a"/>
      <rect id="Rectangle_360" data-name="Rectangle 360" width="4.526" height="4.522" transform="translate(4.526 4.522)" fill="#0e443a"/>
      <rect id="Rectangle_361" data-name="Rectangle 361" width="4.526" height="4.522" transform="translate(9.051 4.522)" fill="#0e443a"/>
      <rect id="Rectangle_362" data-name="Rectangle 362" width="4.526" height="4.522" transform="translate(9.051 0)" fill="#0e443a"/>
      <rect id="Rectangle_363" data-name="Rectangle 363" width="4.526" height="4.522" transform="translate(13.577 0)" fill="#0e443a"/>
      <rect id="Rectangle_364" data-name="Rectangle 364" width="4.526" height="4.522" transform="translate(0 9.044)" fill="#0e443a"/>
    </g>
    <g id="Group_45" data-name="Group 45" transform="translate(44.945 40.727) rotate(-90)">
      <rect id="Rectangle_365" data-name="Rectangle 365" width="4.526" height="4.522" transform="translate(22.624 0)" fill="#0e443a"/>
      <rect id="Rectangle_366" data-name="Rectangle 366" width="4.525" height="4.522" transform="translate(18.099 4.522)" fill="#0e443a"/>
      <rect id="Rectangle_367" data-name="Rectangle 367" width="4.525" height="4.522" transform="translate(18.099 0)" fill="#0e443a"/>
      <rect id="Rectangle_368" data-name="Rectangle 368" width="4.526" height="4.522" transform="translate(13.573 9.043)" fill="#0e443a"/>
      <rect id="Rectangle_369" data-name="Rectangle 369" width="4.526" height="4.522" transform="translate(13.573 4.522)" fill="#0e443a"/>
      <rect id="Rectangle_370" data-name="Rectangle 370" width="4.526" height="4.522" transform="translate(13.573 0)" fill="#0e443a"/>
      <rect id="Rectangle_371" data-name="Rectangle 371" width="4.526" height="4.522" transform="translate(9.048 9.043)" fill="#0e443a"/>
      <rect id="Rectangle_372" data-name="Rectangle 372" width="4.526" height="4.522" transform="translate(9.048 4.522)" fill="#0e443a"/>
      <rect id="Rectangle_373" data-name="Rectangle 373" width="4.522" height="4.522" transform="translate(4.525 9.043)" fill="#0e443a"/>
      <rect id="Rectangle_374" data-name="Rectangle 374" width="4.526" height="4.522" transform="translate(0 9.043)" fill="#0e443a"/>
    </g>
    <g id="Group_46" data-name="Group 46" transform="translate(44.945 72.403) rotate(-90)">
      <rect id="Rectangle_375" data-name="Rectangle 375" width="4.526" height="4.522" transform="translate(18.099 0)" fill="#0e443a"/>
      <rect id="Rectangle_376" data-name="Rectangle 376" width="4.525" height="4.522" transform="translate(13.573 4.522)" fill="#0e443a"/>
      <rect id="Rectangle_377" data-name="Rectangle 377" width="4.525" height="4.522" transform="translate(13.573 0)" fill="#0e443a"/>
      <rect id="Rectangle_378" data-name="Rectangle 378" width="4.526" height="4.522" transform="translate(9.048 9.043)" fill="#0e443a"/>
      <rect id="Rectangle_379" data-name="Rectangle 379" width="4.526" height="4.522" transform="translate(9.048 4.522)" fill="#0e443a"/>
      <rect id="Rectangle_380" data-name="Rectangle 380" width="4.526" height="4.522" transform="translate(9.048 0)" fill="#0e443a"/>
      <rect id="Rectangle_381" data-name="Rectangle 381" width="4.522" height="4.522" transform="translate(4.526 9.043)" fill="#0e443a"/>
      <rect id="Rectangle_382" data-name="Rectangle 382" width="4.522" height="4.522" transform="translate(4.526 4.522)" fill="#0e443a"/>
      <rect id="Rectangle_383" data-name="Rectangle 383" width="4.526" height="4.522" transform="translate(0 9.043)" fill="#0e443a"/>
    </g>
    <g id="Group_47" data-name="Group 47" transform="translate(44.945 99.553) rotate(-90)">
      <rect id="Rectangle_384" data-name="Rectangle 384" width="4.526" height="4.522" transform="translate(18.099 9.043)" fill="#0e443a"/>
      <rect id="Rectangle_385" data-name="Rectangle 385" width="4.526" height="4.522" transform="translate(13.573 9.043)" fill="#0e443a"/>
      <rect id="Rectangle_386" data-name="Rectangle 386" width="4.526" height="4.522" transform="translate(13.573 4.522)" fill="#0e443a"/>
      <rect id="Rectangle_387" data-name="Rectangle 387" width="4.525" height="4.522" transform="translate(9.048 9.043)" fill="#0e443a"/>
      <rect id="Rectangle_388" data-name="Rectangle 388" width="4.525" height="4.522" transform="translate(9.048 4.522)" fill="#0e443a"/>
      <rect id="Rectangle_389" data-name="Rectangle 389" width="4.525" height="4.522" transform="translate(9.048 0)" fill="#0e443a"/>
      <rect id="Rectangle_390" data-name="Rectangle 390" width="4.526" height="4.522" transform="translate(4.522 4.522)" fill="#0e443a"/>
      <rect id="Rectangle_391" data-name="Rectangle 391" width="4.526" height="4.522" transform="translate(4.522 0)" fill="#0e443a"/>
      <rect id="Rectangle_392" data-name="Rectangle 392" width="4.522" height="4.522" transform="translate(0 0)" fill="#0e443a"/>
    </g>
    <g id="Group_48" data-name="Group 48" transform="translate(44.945 135.755) rotate(-90)">
      <rect id="Rectangle_393" data-name="Rectangle 393" width="4.525" height="4.522" transform="translate(22.624 9.043)" fill="#0e443a"/>
      <rect id="Rectangle_394" data-name="Rectangle 394" width="4.526" height="4.522" transform="translate(18.099 9.043)" fill="#0e443a"/>
      <rect id="Rectangle_395" data-name="Rectangle 395" width="4.526" height="4.522" transform="translate(13.573 9.043)" fill="#0e443a"/>
      <rect id="Rectangle_396" data-name="Rectangle 396" width="4.526" height="4.522" transform="translate(13.573 4.522)" fill="#0e443a"/>
      <rect id="Rectangle_397" data-name="Rectangle 397" width="4.522" height="4.522" transform="translate(9.051 9.043)" fill="#0e443a"/>
      <rect id="Rectangle_398" data-name="Rectangle 398" width="4.522" height="4.522" transform="translate(9.051 4.522)" fill="#0e443a"/>
      <rect id="Rectangle_399" data-name="Rectangle 399" width="4.522" height="4.522" transform="translate(9.051 0)" fill="#0e443a"/>
      <rect id="Rectangle_400" data-name="Rectangle 400" width="4.526" height="4.522" transform="translate(4.526 4.522)" fill="#0e443a"/>
      <rect id="Rectangle_401" data-name="Rectangle 401" width="4.526" height="4.522" transform="translate(4.526 0)" fill="#0e443a"/>
      <rect id="Rectangle_402" data-name="Rectangle 402" width="4.525" height="4.522" transform="translate(0 0)" fill="#0e443a"/>
    </g>
    <g id="Group_49" data-name="Group 49" transform="translate(17.81 149.332) rotate(-90)">
      <rect id="Rectangle_403" data-name="Rectangle 403" width="4.525" height="4.522" transform="translate(13.577 9.048)" fill="#0e443a"/>
      <rect id="Rectangle_404" data-name="Rectangle 404" width="4.526" height="4.522" transform="translate(9.051 9.048)" fill="#0e443a"/>
      <rect id="Rectangle_405" data-name="Rectangle 405" width="4.526" height="4.522" transform="translate(9.051 4.526)" fill="#0e443a"/>
      <rect id="Rectangle_406" data-name="Rectangle 406" width="4.526" height="4.522" transform="translate(4.526 4.526)" fill="#0e443a"/>
      <rect id="Rectangle_407" data-name="Rectangle 407" width="4.526" height="4.526" transform="translate(4.526)" fill="#0e443a"/>
      <rect id="Rectangle_408" data-name="Rectangle 408" width="4.525" height="4.526" fill="#0e443a"/>
    </g>
  </g>
</svg>
