<svg id="Layer_1" data-name="Layer 1" xmlns="http://www.w3.org/2000/svg" viewBox="0 0 1028.02 216.03"><path d="M439.71,24.93h-2.48c-2.08-6.66-5.61-15.27-17.62-15.27h-24V49.34h15.66c9.14,0,11.62-3.14,12.53-8.62h2.35V62.78h-2.35c-.91-5.48-3.39-8.48-12.53-8.48H395.6V85.36c0,5.09,1.3,7.31,6.13,7.83v2.87H375.5V93.19c4.83-.52,6.13-2.74,6.13-7.83V15.27c0-5.09-1.3-7.31-6.13-7.7V4.7h61.73Z"/><path d="M495.19,92.67a12.64,12.64,0,0,1-10.31,4.7c-5,0-11-2.35-11.09-10.05-3.27,6.4-10.19,10.05-17.89,10.05-10.18,0-21.27-4.44-21.92-15.92-.92-13.58,9.66-19.71,22.71-20.89,8.09-.65,14-1.17,17.1-1.43V54c0-11.49-2.74-17.62-11.75-18.28-5-.26-10.44,2.48-10.18,8.75.26,7.05-4.44,9-8.62,7.44-3.52-1.44-4.56-5.48-2.61-9.53,3.4-7.31,13.19-9.4,21-9.4,12.14,0,25.71,4,25.71,23.36V87.19c0,4.7,3.65,5.48,6.53,3.26Zm-21.4-17.62V62.13c-2,.26-5.22.52-10.32,1.17-10.7,1.31-16.57,7.83-16.44,16.06.13,9,5.87,13.31,13.05,13C468.43,92.15,473.79,85.62,473.79,75.05Z"/><path d="M566.33,65.13c0,19.71-12.66,32.24-28.19,32.24-11.36,0-18.41-6.27-22.71-13.83L506,96.06h-2.74V15.27c0-5.09-1.31-7.31-6.14-7.7V4.7L514.77,0H517V44.38A24,24,0,0,1,538.14,33C553.67,33,566.33,45.42,566.33,65.13Zm-13.83,0c0-15.79-6.27-27.41-17.76-27.41S517,48.42,517,65.13s6.27,27.41,17.75,27.41S552.5,80.92,552.5,65.13Z"/><path d="M597,93.19v2.87H570.9V93.19c5-.39,6.27-2.74,6.27-7.83V15.27c0-5.09-1.31-7.31-6.27-7.7V4.7L588.65,0h2.09V85.36C590.74,90.45,592.05,92.8,597,93.19Z"/><path d="M659.92,63H615a3.66,3.66,0,0,0,.13,1.18c1.44,28.84,30.8,31.58,42.16,16.84l1.83,1.56c-4.44,8.62-14.36,14.75-25.45,14.75-17.24,0-32.11-12.66-32.11-33.15,0-19.84,13.44-31.2,30.8-31.2,18.93,0,27.8,13.18,27.54,29.24Zm-44.77-4.7h32.24c.39-11.61-4.44-22.58-15.27-22.45C623,36,616.06,44.64,615.15,58.34Z"/><path d="M712.52,82.1c-2.61,10.05-11.74,15.27-24.4,15.27-8,0-17.1-2.35-22.85-6.79V76.36h2.09c2.87,12.4,12.27,17.22,20.76,17.49,6.52.26,12-2.22,13.31-7.84,2-8.48-6.66-11.87-15-15.66-12.53-5.74-21.15-11.62-17.75-24.93,2.22-8.87,11.74-12.4,20.88-12.4a31.42,31.42,0,0,1,19.19,6.66V52.34h-2.22c-3-11.75-8.35-16.32-17-16.06-4.57.14-9.66,1.83-10.31,7.58-.91,7.7,7.44,11.09,16.06,15C705.21,63.43,716.05,68.92,712.52,82.1Z"/><path d="M806.24,65.13c0,20.36-15.4,32.24-32.76,32.24s-32.76-11.88-32.76-32.24S756.12,33,773.48,33,806.24,44.77,806.24,65.13Zm-14.09,0c0-17-6.92-28.45-18.67-28.45s-18.66,11.48-18.66,28.45,6.92,28.45,18.66,28.45S792.15,82.1,792.15,65.13Z"/><path d="M854.15,20.62c-2.61,1.83-6.66,1.18-8.22-1.56s-1.57-6.14-2.48-8.36c-1.44-3.13-3.26-4.31-6.66-4.17-4.57.26-6.92,4-6.66,8.74.66,8.22,2.88,6,2.88,18v.92h16.18v4.7H833V85.36c0,5.09,1.3,7.44,6.26,7.83v2.87h-26V93.19c4.83-.39,6.13-2.74,6.13-7.83V38.9H808.21V34.2h11.22V29c0-13.84,4.44-25.59,18.14-26,6.53-.13,12.8,2,16.84,7.18C856.24,12.53,857.94,17.88,854.15,20.62Z"/><path d="M437,196.19C433.06,211.07,419.35,216,405.78,216c-11.88,0-21.8-3.27-30.28-9.27V188.35H378c4.7,15,13.57,23.5,26,24.15s18.8-5.87,20.23-14.1C426.4,185.61,416,180,404,173.21c-13.18-7.44-27.41-16.31-23.49-33.8,2.87-12.79,13.83-17.49,26.23-17.49,10.05,0,17.49,3.52,26.11,9.26v17.63h-2.48c-3.92-16.19-11.49-22.85-21.93-23.24-10.18-.52-15.4,4.7-16.06,12.66-1,11.36,9.27,16.19,21.15,23.11C429.8,170.86,441.41,178.56,437,196.19Z"/><path d="M535,152.85v2.87c-3.66.66-4.83,2.09-6.27,5.62l-20.1,53.38h-5.87l-15.53-44.25L471,214.72h-5.61l-19.84-50.64c-2.09-5.09-3.26-7.7-8.22-8.36v-2.87h26v2.87c-4,.26-4.83,3.53-3.52,7.44l12.53,36.29,16.84-46.6h5.74l15.14,46.47L523.64,163c1.31-3.65.79-6.92-3.39-7.31v-2.87Z"/><path d="M593.74,211.33a12.64,12.64,0,0,1-10.31,4.7c-5,0-11-2.35-11.1-10.06-3.26,6.4-10.18,10.06-17.88,10.06-10.18,0-21.27-4.44-21.92-15.93-.92-13.57,9.65-19.71,22.71-20.88,8.09-.66,14-1.18,17.09-1.44v-5.09c0-11.48-2.74-17.62-11.74-18.27-5-.26-10.44,2.48-10.18,8.74.26,7.05-4.44,9-8.62,7.44-3.52-1.43-4.57-5.48-2.61-9.53,3.4-7.3,13.18-9.39,21-9.39,12.13,0,25.71,4,25.71,23.36v30.8c0,4.7,3.65,5.49,6.53,3.27Zm-21.41-17.62V180.78c-2,.26-5.22.53-10.31,1.18-10.7,1.3-16.57,7.83-16.44,16,.13,9,5.87,13.32,13,13.06C567,210.8,572.33,204.28,572.33,193.71Z"/><path d="M645.17,169.3c-4.31,1.43-9-.13-9.53-6.53-.52-4.83-3.13-5.74-6.78-5.09-5.23.91-10.71,8-10.71,17.36v29.11c0,5.09,1.31,7.31,6.14,7.7v2.87h-26v-2.87c4.83-.39,6.14-2.61,6.14-7.7V167c0-5.09-1.31-7.44-6.14-7.83v-2.87l17.36-4.57h2.09v11.09c3.65-7.18,9.53-11,17.1-11.09,6.13-.13,12.27,2.61,14.1,8.09C650,163.29,648.82,168,645.17,169.3Z"/><path d="M723.75,211.85v2.87h-26v-2.87c4.83-.39,6.14-2.74,6.14-7.83V174.91c0-10.57-4.7-18.27-14.88-18.27-9,0-15.27,7.31-15.27,17.09V204c0,5.09,1.3,7.44,6.26,7.83v2.87h-26.1v-2.87c5-.39,6.26-2.74,6.26-7.83V167c0-5.09-1.3-7.44-6.26-7.83v-2.87l17.36-4.57h2.09v9.53c5-6.53,12-9.53,20.1-9.53,16,0,24.14,10.83,24.14,24.53V204C717.61,209.11,718.92,211.46,723.75,211.85Z"/><path d="M814.6,196.19C810.68,211.07,797,216,783.4,216c-11.87,0-21.79-3.27-30.28-9.27V188.35h2.48c4.7,15,13.58,23.5,26,24.15s18.79-5.87,20.23-14.1c2.22-12.79-8.23-18.4-20.23-25.19-13.19-7.44-27.41-16.31-23.5-33.8,2.87-12.79,13.84-17.49,26.24-17.49,10,0,17.49,3.52,26.1,9.26v17.63h-2.48C804,132.62,796.46,126,786,125.57c-10.18-.52-15.4,4.7-16,12.66-1.05,11.36,9.27,16.19,21.14,23.11C807.42,170.86,819,178.56,814.6,196.19Z"/><path d="M847.49,211.85v2.87h-26v-2.87c4.83-.39,6.13-2.74,6.13-7.83V167c0-5.09-1.3-7.44-6.13-7.83v-2.87l17.75-4.57h2.09V204C841.36,209.11,842.67,211.46,847.49,211.85Zm-23.1-78c0-5.62,4.18-8.75,9.14-8.75s9.14,3.13,9.14,8.75-4.18,8.74-9.14,8.74S824.39,139.41,824.39,133.8Z"/><path d="M922.81,211.85v2.87h-26v-2.87c4.31-.52,4.31-3.27.79-7.83l-16.71-21.67-8.48,7.7v14c0,5.09,1.3,7.44,6.26,7.83v2.87h-26v-2.87c4.83-.39,6.13-2.74,6.13-7.83V133.93c0-5.09-1.3-7.31-6.13-7.71v-2.87l17.62-4.69h2.09v66l24.27-22.06c4.18-3.78,3.92-6.53-.91-6.92v-2.87H915v2.87c-5.49.79-9,3.53-13.58,7.7l-11.22,10.45L912.76,204C916.15,208.58,918.89,210.93,922.81,211.85Z"/><path d="M997.47,211.85v2.87h-26v-2.87c4.3-.52,4.3-3.27.78-7.83l-16.71-21.67-8.48,7.7v14c0,5.09,1.3,7.44,6.26,7.83v2.87h-26v-2.87c4.83-.39,6.13-2.74,6.13-7.83V133.93c0-5.09-1.3-7.31-6.13-7.71v-2.87L945,118.66h2.09v66l24.27-22.06c4.18-3.78,3.92-6.53-.91-6.92v-2.87h19.19v2.87c-5.48.79-9,3.53-13.58,7.7l-11.22,10.45L987.42,204C990.81,208.58,993.55,210.93,997.47,211.85Z"/><path d="M1028,211.85v2.87h-26v-2.87c4.83-.39,6.14-2.74,6.14-7.83V167c0-5.09-1.31-7.44-6.14-7.83v-2.87l17.75-4.57h2.09V204C1021.88,209.11,1023.19,211.46,1028,211.85Zm-23.11-78c0-5.62,4.18-8.75,9.14-8.75s9.14,3.13,9.14,8.75-4.18,8.74-9.14,8.74S1004.91,139.41,1004.91,133.8Z"/><rect x="253.67" y="151.89" width="9.76" height="9.75"/><rect x="243.92" y="161.64" width="9.75" height="9.75"/><rect x="234.17" y="171.39" width="9.76" height="9.75"/><rect x="224.41" y="181.14" width="9.76" height="9.75"/><rect x="214.65" y="190.89" width="9.76" height="9.75"/><rect x="204.89" y="200.64" width="9.76" height="9.76"/><rect x="195.14" y="200.64" width="9.76" height="9.76"/><rect x="185.38" y="200.64" width="9.76" height="9.76"/><rect x="175.63" y="200.64" width="9.75" height="9.76"/><rect x="165.87" y="200.64" width="9.76" height="9.76"/><rect x="156.11" y="200.64" width="9.76" height="9.76"/><rect x="156.11" y="190.89" width="9.76" height="9.75"/><rect x="156.11" y="181.14" width="9.76" height="9.75"/><rect x="156.11" y="171.39" width="9.76" height="9.75"/><rect x="156.11" y="161.64" width="9.76" height="9.75"/><rect x="156.11" y="151.89" width="9.76" height="9.75"/><rect x="156.11" y="142.14" width="9.76" height="9.75"/><rect x="156.11" y="132.39" width="9.76" height="9.75"/><rect x="156.11" y="122.64" width="9.76" height="9.75"/><rect x="156.11" y="112.89" width="9.76" height="9.75"/><rect x="156.11" y="103.13" width="9.76" height="9.76"/><rect x="146.35" y="200.64" width="9.76" height="9.76"/><rect x="146.35" y="103.13" width="9.76" height="9.76"/><rect x="146.35" y="93.38" width="9.76" height="9.75"/><rect x="136.6" y="200.64" width="9.76" height="9.76"/><rect x="126.84" y="200.64" width="9.76" height="9.76"/><rect x="117.08" y="200.64" width="9.76" height="9.76"/><rect x="107.33" y="200.64" width="9.75" height="9.76"/><rect x="97.57" y="190.89" width="9.76" height="9.75"/><rect x="87.81" y="181.14" width="9.76" height="9.75"/><rect x="78.06" y="171.39" width="9.76" height="9.75"/><rect x="68.3" y="161.64" width="9.76" height="9.75"/><rect x="58.54" y="151.89" width="9.76" height="9.75"/><rect x="273.19" y="122.64" width="9.76" height="9.75"/><rect x="263.43" y="132.39" width="9.76" height="9.75"/><rect x="263.43" y="122.64" width="9.76" height="9.75"/><rect x="263.43" y="112.89" width="9.76" height="9.75"/><rect x="253.67" y="142.14" width="9.76" height="9.75"/><rect x="253.67" y="132.39" width="9.76" height="9.75"/><rect x="253.67" y="112.89" width="9.76" height="9.75"/><rect x="253.67" y="103.13" width="9.76" height="9.76"/><rect x="243.92" y="132.39" width="9.75" height="9.75"/><rect x="243.92" y="122.64" width="9.75" height="9.75"/><rect x="243.92" y="112.89" width="9.75" height="9.75"/><rect x="234.17" y="122.64" width="9.76" height="9.75"/><rect x="185.38" y="54.38" width="9.76" height="9.75"/><rect x="175.63" y="64.13" width="9.75" height="9.75"/><rect x="175.63" y="54.38" width="9.75" height="9.75"/><rect x="175.63" y="44.64" width="9.75" height="9.75"/><rect x="165.87" y="73.88" width="9.76" height="9.75"/><rect x="165.87" y="64.13" width="9.76" height="9.75"/><rect x="165.87" y="54.38" width="9.76" height="9.75"/><rect x="165.87" y="44.64" width="9.76" height="9.75"/><rect x="165.87" y="34.89" width="9.76" height="9.75"/><rect x="156.11" y="83.63" width="9.76" height="9.75"/><polygon points="165.87 73.88 165.87 83.63 156.11 83.63 156.11 73.88 160.76 73.88 165.87 73.88"/><rect x="160.76" y="64.13" width="5.11" height="9.75"/><rect x="160.76" y="54.38" width="5.11" height="9.75"/><polygon points="165.87 44.63 165.87 54.38 160.76 54.38 160.76 44.63 160.94 44.63 165.87 44.63"/><polygon points="165.87 34.88 165.87 44.63 160.94 44.63 160.76 44.63 156.11 44.63 156.11 34.88 165.87 34.88"/><polygon points="165.87 25.14 165.87 34.88 156.11 34.88 156.11 25.14 160.76 25.14 165.87 25.14"/><rect x="156.11" y="15.39" width="4.65" height="9.75"/><rect x="146.35" y="83.63" width="9.76" height="9.75"/><polygon points="156.11 73.88 156.11 83.63 146.35 83.63 146.35 73.88 151.23 73.88 156.11 73.88"/><polygon points="156.11 34.88 156.11 44.63 151.23 44.63 146.35 44.63 146.35 34.88 156.11 34.88"/><polygon points="156.11 25.14 156.11 34.88 146.35 34.88 146.35 25.14 151.23 25.14 156.11 25.14"/><rect x="151.23" y="15.39" width="4.88" height="9.75"/><rect x="146.35" y="64.13" width="4.88" height="9.75"/><rect x="146.35" y="54.38" width="4.88" height="9.75"/><rect x="146.35" y="44.64" width="4.88" height="9.75"/><rect x="136.6" y="73.88" width="9.76" height="9.75"/><rect x="136.6" y="64.13" width="9.76" height="9.75"/><rect x="136.6" y="54.38" width="9.76" height="9.75"/><rect x="136.6" y="44.64" width="9.76" height="9.75"/><rect x="136.6" y="34.89" width="9.76" height="9.75"/><rect x="126.84" y="64.13" width="9.76" height="9.75"/><rect x="126.84" y="54.38" width="9.76" height="9.75"/><rect x="126.84" y="44.64" width="9.76" height="9.75"/><rect x="117.08" y="54.38" width="9.76" height="9.75"/><rect x="78.06" y="122.64" width="9.76" height="9.75"/><rect x="68.3" y="132.39" width="9.76" height="9.75"/><rect x="68.3" y="122.64" width="9.76" height="9.75"/><rect x="68.3" y="112.89" width="9.76" height="9.75"/><rect x="58.54" y="142.14" width="9.76" height="9.75"/><rect x="58.54" y="132.39" width="9.76" height="9.75"/><rect x="58.54" y="112.89" width="9.76" height="9.75"/><rect x="58.54" y="103.13" width="9.76" height="9.76"/><rect x="48.79" y="132.39" width="9.75" height="9.75"/><rect x="48.79" y="122.64" width="9.75" height="9.75"/><rect x="48.79" y="112.89" width="9.75" height="9.75"/><rect x="39.03" y="122.64" width="9.76" height="9.75"/><rect x="292.71" y="122.64" width="9.76" height="9.75"/><rect x="292.71" y="112.89" width="9.76" height="9.75"/><rect x="302.46" y="112.89" width="9.76" height="9.75"/><rect x="302.46" y="103.14" width="9.76" height="9.75"/><rect x="312.22" y="103.14" width="9.76" height="9.75"/><rect x="282.95" y="122.64" width="9.76" height="9.75"/><rect x="292.71" y="73.88" width="9.76" height="9.75"/><rect x="282.95" y="83.63" width="9.76" height="9.75"/><rect x="282.95" y="73.88" width="9.76" height="9.75"/><rect x="273.19" y="93.38" width="9.76" height="9.75"/><rect x="273.19" y="83.63" width="9.76" height="9.75"/><rect x="263.43" y="93.38" width="9.76" height="9.75"/><rect x="282.95" y="161.64" width="9.76" height="9.75"/><rect x="273.19" y="171.39" width="9.76" height="9.75"/><rect x="273.19" y="161.64" width="9.76" height="9.75"/><rect x="263.43" y="181.14" width="9.76" height="9.75"/><rect x="263.43" y="171.39" width="9.76" height="9.75"/><rect x="263.43" y="161.64" width="9.76" height="9.75"/><rect x="253.67" y="181.14" width="9.76" height="9.75"/><rect x="253.67" y="171.39" width="9.76" height="9.75"/><rect x="243.92" y="181.14" width="9.75" height="9.75"/><rect x="234.17" y="181.14" width="9.76" height="9.75"/><rect x="243.92" y="93.38" width="9.75" height="9.75"/><rect x="234.17" y="93.38" width="9.76" height="9.75"/><rect x="234.17" y="83.63" width="9.76" height="9.75"/><rect x="224.41" y="83.63" width="9.76" height="9.75"/><rect x="224.41" y="73.88" width="9.76" height="9.75"/><rect x="214.65" y="73.88" width="9.76" height="9.75"/><rect x="224.41" y="25.14" width="9.76" height="9.75"/><rect x="214.65" y="34.89" width="9.76" height="9.75"/><rect x="214.65" y="25.14" width="9.76" height="9.75"/><rect x="204.89" y="44.64" width="9.76" height="9.75"/><rect x="204.89" y="34.89" width="9.76" height="9.75"/><rect x="204.89" y="25.14" width="9.76" height="9.75"/><rect x="195.14" y="44.64" width="9.76" height="9.75"/><rect x="195.14" y="34.89" width="9.76" height="9.75"/><rect x="185.38" y="44.64" width="9.76" height="9.75"/><rect x="204.89" y="161.64" width="9.76" height="9.75"/><rect x="195.14" y="171.39" width="9.76" height="9.75"/><rect x="195.14" y="161.64" width="9.76" height="9.75"/><rect x="185.38" y="181.14" width="9.76" height="9.75"/><rect x="185.38" y="171.39" width="9.76" height="9.75"/><rect x="185.38" y="161.64" width="9.76" height="9.75"/><rect x="175.63" y="181.14" width="9.75" height="9.75"/><rect x="175.63" y="171.39" width="9.75" height="9.75"/><rect x="165.87" y="181.14" width="9.76" height="9.75"/><rect x="204.89" y="122.64" width="9.76" height="9.75"/><rect x="195.14" y="132.39" width="9.76" height="9.75"/><rect x="195.14" y="122.64" width="9.76" height="9.75"/><rect x="185.38" y="142.14" width="9.76" height="9.75"/><rect x="185.38" y="132.39" width="9.76" height="9.75"/><rect x="185.38" y="122.64" width="9.76" height="9.75"/><rect x="175.63" y="142.14" width="9.75" height="9.75"/><rect x="175.63" y="132.39" width="9.75" height="9.75"/><rect x="165.87" y="142.14" width="9.76" height="9.75"/><rect x="175.63" y="5.63" width="9.75" height="9.76"/><rect x="165.87" y="5.63" width="9.76" height="9.76"/><polygon points="165.87 5.63 165.87 15.39 160.76 15.39 156.11 15.39 156.11 5.63 165.87 5.63"/><polygon points="156.11 5.63 156.11 15.39 151.23 15.39 146.35 15.39 146.35 5.63 156.11 5.63"/><rect x="136.6" y="5.63" width="9.76" height="9.76"/><rect x="126.84" y="5.63" width="9.76" height="9.76"/><rect x="146.35" y="181.14" width="9.76" height="9.75"/><rect x="136.6" y="181.14" width="9.76" height="9.75"/><rect x="136.6" y="171.39" width="9.76" height="9.75"/><rect x="126.84" y="181.14" width="9.76" height="9.75"/><rect x="126.84" y="171.39" width="9.76" height="9.75"/><rect x="126.84" y="161.64" width="9.76" height="9.75"/><rect x="117.08" y="171.39" width="9.76" height="9.75"/><rect x="117.08" y="161.64" width="9.76" height="9.75"/><rect x="107.33" y="161.64" width="9.75" height="9.75"/><rect x="146.35" y="142.14" width="9.76" height="9.75"/><rect x="136.6" y="142.14" width="9.76" height="9.75"/><rect x="136.6" y="132.39" width="9.76" height="9.75"/><rect x="126.84" y="142.14" width="9.76" height="9.75"/><rect x="126.84" y="132.39" width="9.76" height="9.75"/><rect x="126.84" y="122.64" width="9.76" height="9.75"/><rect x="117.08" y="132.39" width="9.76" height="9.75"/><rect x="117.08" y="122.64" width="9.76" height="9.75"/><rect x="107.33" y="122.64" width="9.75" height="9.75"/><rect x="117.08" y="44.64" width="9.76" height="9.75"/><rect x="107.33" y="44.64" width="9.75" height="9.75"/><rect x="107.33" y="34.89" width="9.75" height="9.75"/><rect x="97.57" y="44.64" width="9.76" height="9.75"/><rect x="97.57" y="34.89" width="9.76" height="9.75"/><rect x="97.57" y="25.14" width="9.76" height="9.75"/><rect x="87.81" y="34.89" width="9.76" height="9.75"/><rect x="87.81" y="25.14" width="9.76" height="9.75"/><rect x="78.06" y="25.14" width="9.76" height="9.75"/><rect x="97.57" y="73.88" width="9.76" height="9.75"/><rect x="87.81" y="83.63" width="9.76" height="9.75"/><rect x="87.81" y="73.88" width="9.76" height="9.75"/><rect x="78.06" y="93.38" width="9.76" height="9.75"/><rect x="78.06" y="83.63" width="9.76" height="9.75"/><rect x="68.3" y="93.38" width="9.76" height="9.75"/><rect x="78.06" y="181.14" width="9.76" height="9.75"/><rect x="68.3" y="181.14" width="9.76" height="9.75"/><rect x="58.54" y="181.14" width="9.76" height="9.75"/><rect x="58.54" y="171.39" width="9.76" height="9.75"/><rect x="48.79" y="181.14" width="9.75" height="9.75"/><rect x="48.79" y="171.39" width="9.75" height="9.75"/><rect x="48.79" y="161.64" width="9.75" height="9.75"/><rect x="39.03" y="171.39" width="9.76" height="9.75"/><rect x="39.03" y="161.64" width="9.76" height="9.75"/><rect x="29.27" y="161.64" width="9.76" height="9.75"/><rect x="48.79" y="93.38" width="9.75" height="9.75"/><rect x="39.03" y="93.38" width="9.76" height="9.75"/><rect x="39.03" y="83.63" width="9.76" height="9.75"/><rect x="29.27" y="83.63" width="9.76" height="9.75"/><rect x="29.27" y="73.88" width="9.76" height="9.75"/><rect x="19.52" y="73.88" width="9.76" height="9.75"/><rect x="29.27" y="122.64" width="9.76" height="9.75"/><rect x="19.52" y="122.64" width="9.76" height="9.75"/><rect x="19.52" y="112.89" width="9.76" height="9.75"/><rect x="9.76" y="112.89" width="9.76" height="9.75"/><rect x="9.76" y="103.13" width="9.76" height="9.76"/><rect y="103.13" width="9.76" height="9.76"/></svg>