<svg id="Layer_1" data-name="Layer 1" xmlns="http://www.w3.org/2000/svg" viewBox="0 0 352 249.32"><defs><style>.cls-1{fill:#fff;}</style></defs><path class="cls-1" d="M84.25,147.31H82.91c-1.13-3.59-3-8.23-9.51-8.23h-13v21.4H68.9c4.93,0,6.26-1.69,6.76-4.65h1.27v11.9H75.66c-.5-2.95-1.83-4.57-6.76-4.57H60.45v16.75c0,2.75.7,4,3.31,4.23v1.55H49.61v-1.55c2.6-.28,3.31-1.48,3.31-4.23V142.1c0-2.74-.71-3.94-3.31-4.15V136.4h33.3Z"/><path class="cls-1" d="M114.18,183.86a6.83,6.83,0,0,1-5.57,2.53c-2.67,0-5.91-1.27-6-5.42A10.54,10.54,0,0,1,93,186.39c-5.49,0-11.48-2.39-11.83-8.59-.49-7.32,5.21-10.63,12.25-11.26l9.23-.78V163c0-6.2-1.48-9.51-6.34-9.86-2.68-.14-5.63,1.34-5.49,4.72.14,3.8-2.4,4.85-4.65,4-1.9-.78-2.46-3-1.41-5.14,1.83-3.94,7.11-5.07,11.34-5.07,6.55,0,13.87,2.18,13.87,12.6V180.9c0,2.53,2,3,3.52,1.76Zm-11.55-9.51v-7c-1.06.14-2.82.28-5.57.63-5.77.71-8.94,4.23-8.87,8.66.07,4.86,3.17,7.19,7,7.05C99.74,183.57,102.63,180.05,102.63,174.35Z"/><path class="cls-1" d="M152.55,169c0,10.63-6.83,17.39-15.21,17.39-6.12,0-9.93-3.38-12.25-7.46L120,185.69h-1.48V142.1c0-2.74-.7-3.94-3.31-4.15V136.4l9.51-2.53h1.2V157.8a13,13,0,0,1,11.4-6.12C145.72,151.68,152.55,158.37,152.55,169Zm-7.46,0c0-8.52-3.38-14.79-9.58-14.79S125.94,160,125.94,169s3.37,14.79,9.57,14.79S145.09,177.52,145.09,169Z"/><path class="cls-1" d="M169.1,184.14v1.55H155v-1.55c2.67-.21,3.38-1.48,3.38-4.23V142.1c0-2.74-.71-3.94-3.38-4.15V136.4l9.57-2.53h1.13v46C165.72,182.66,166.42,183.93,169.1,184.14Z"/><path class="cls-1" d="M203,167.87H178.82a2,2,0,0,0,.07.64c.77,15.56,16.61,17,22.74,9.08l1,.85a15.52,15.52,0,0,1-13.74,7.95c-9.29,0-17.32-6.83-17.32-17.88,0-10.71,7.26-16.83,16.62-16.83,10.21,0,15,7.11,14.86,15.77Zm-24.15-2.53h17.39c.21-6.27-2.4-12.18-8.24-12.11C183.11,153.3,179.38,158,178.89,165.34Z"/><path class="cls-1" d="M231.41,178.15c-1.4,5.42-6.33,8.24-13.16,8.24-4.3,0-9.23-1.27-12.32-3.66v-7.67h1.12a11.5,11.5,0,0,0,11.2,9.43c3.52.14,6.48-1.2,7.18-4.22,1.06-4.58-3.59-6.41-8.1-8.45-6.76-3.1-11.4-6.27-9.57-13.45,1.19-4.79,6.33-6.69,11.26-6.69a17,17,0,0,1,10.35,3.59v6.83h-1.19c-1.62-6.34-4.51-8.8-9.16-8.66-2.46.07-5.21,1-5.56,4.08-.49,4.16,4,6,8.66,8.1C227.47,168.08,233.32,171,231.41,178.15Z"/><path class="cls-1" d="M282,169c0,11-8.31,17.39-17.67,17.39S246.62,180,246.62,169s8.31-17.32,17.68-17.32S282,158,282,169Zm-7.6,0c0-9.15-3.73-15.35-10.07-15.35s-10.07,6.2-10.07,15.35,3.73,15.35,10.07,15.35S274.37,178.15,274.37,169Z"/><path class="cls-1" d="M307.81,145a3.16,3.16,0,0,1-4.43-.84c-.78-1.41-.85-3.31-1.34-4.51a3.3,3.3,0,0,0-3.59-2.25c-2.46.14-3.73,2.18-3.59,4.71.35,4.44,1.55,3.24,1.55,9.72v.49h8.73v2.54h-8.73v25.06c0,2.75.7,4,3.38,4.23v1.55h-14v-1.55c2.6-.21,3.31-1.48,3.31-4.23V154.85H283v-2.54h6.06V149.5c0-7.47,2.39-13.8,9.78-14,3.52-.07,6.9,1.06,9.09,3.88C308.94,140.62,309.86,143.51,307.81,145Z"/><path class="cls-1" d="M33.16,238.62c-2.11,8-9.5,10.7-16.82,10.7a27.44,27.44,0,0,1-16.34-5v-9.93H1.34c2.53,8.1,7.32,12.68,14,13s10.14-3.17,10.91-7.6c1.2-6.9-4.43-9.93-10.91-13.59C8.24,222.21.56,217.42,2.68,208c1.54-6.9,7.46-9.43,14.15-9.43,5.42,0,9.43,1.9,14.08,5v9.51H29.57c-2.11-8.73-6.19-12.32-11.83-12.53-5.49-.29-8.3,2.53-8.66,6.83-.56,6.12,5,8.73,11.41,12.46C29.29,225,35.56,229.11,33.16,238.62Z"/><path class="cls-1" d="M86,215.24v1.55c-2,.35-2.6,1.13-3.38,3l-10.84,28.8H68.65l-8.38-23.87-8.73,23.87h-3L37.81,221.3c-1.13-2.75-1.76-4.16-4.43-4.51v-1.55h14v1.55c-2.19.14-2.61,1.9-1.9,4l6.76,19.58,9.08-25.14h3.1l8.16,25.07,7.33-19.58c.7-2,.42-3.73-1.83-3.94v-1.55Z"/><path class="cls-1" d="M117.73,246.79a6.81,6.81,0,0,1-5.56,2.53c-2.68,0-5.92-1.27-6-5.42a10.53,10.53,0,0,1-9.64,5.42c-5.49,0-11.48-2.39-11.83-8.59-.49-7.32,5.21-10.63,12.25-11.26l9.22-.78v-2.75c0-6.19-1.47-9.5-6.33-9.85-2.68-.14-5.64,1.33-5.49,4.71.14,3.81-2.4,4.86-4.65,4-1.9-.78-2.47-3-1.41-5.14,1.83-3.94,7.11-5.07,11.34-5.07,6.54,0,13.87,2.18,13.87,12.6v16.62c0,2.53,2,3,3.52,1.76Zm-11.55-9.51v-7c-1.05.14-2.81.28-5.56.63-5.77.71-8.94,4.23-8.87,8.66.07,4.86,3.17,7.19,7,7.05C103.3,246.5,106.18,243,106.18,237.28Z"/><path class="cls-1" d="M145.47,224.11c-2.32.78-4.85-.07-5.14-3.52-.28-2.6-1.68-3.09-3.66-2.74-2.81.49-5.77,4.29-5.77,9.36v15.7c0,2.75.7,4,3.31,4.16v1.55h-14v-1.55c2.6-.21,3.31-1.41,3.31-4.16V222.85c0-2.75-.71-4-3.31-4.23v-1.55l9.36-2.46h1.13v6a10.09,10.09,0,0,1,9.22-6c3.31-.07,6.62,1.41,7.61,4.36C148.08,220.88,147.45,223.41,145.47,224.11Z"/><path class="cls-1" d="M187.86,247.07v1.55h-14v-1.55c2.61-.21,3.31-1.48,3.31-4.23v-15.7c0-5.7-2.53-9.86-8-9.86-4.85,0-8.23,3.95-8.23,9.23v16.33c0,2.75.7,4,3.38,4.23v1.55H150.19v-1.55c2.68-.21,3.38-1.48,3.38-4.23v-20c0-2.75-.7-4-3.38-4.23v-1.55l9.37-2.46h1.12v5.14a13,13,0,0,1,10.85-5.14c8.66,0,13,5.84,13,13.24v15C184.55,245.59,185.26,246.86,187.86,247.07Z"/><path class="cls-1" d="M236.87,238.62c-2.11,8-9.5,10.7-16.83,10.7a27.43,27.43,0,0,1-16.33-5v-9.93h1.34c2.53,8.1,7.32,12.68,14,13s10.14-3.17,10.91-7.6c1.2-6.9-4.43-9.93-10.91-13.59-7.11-4-14.79-8.81-12.67-18.24,1.54-6.9,7.46-9.43,14.15-9.43,5.42,0,9.43,1.9,14.08,5v9.51h-1.34c-2.11-8.73-6.19-12.32-11.83-12.53-5.49-.29-8.31,2.53-8.66,6.83-.56,6.12,5,8.73,11.41,12.46C233,225,239.27,229.11,236.87,238.62Z"/><path class="cls-1" d="M254.62,247.07v1.55h-14v-1.55c2.6-.21,3.31-1.48,3.31-4.23v-20c0-2.75-.71-4-3.31-4.23v-1.55l9.57-2.46h1.13v28.23C251.31,245.59,252,246.86,254.62,247.07ZM242.16,205a4.93,4.93,0,1,1,4.92,4.72A4.6,4.6,0,0,1,242.16,205Z"/><path class="cls-1" d="M295.25,247.07v1.55h-14v-1.55c2.33-.28,2.33-1.76.43-4.23l-9-11.68-4.57,4.15v7.53c0,2.75.7,4,3.38,4.23v1.55h-14v-1.55c2.6-.21,3.3-1.48,3.3-4.23V205c0-2.74-.7-3.94-3.3-4.15v-1.55l9.5-2.53h1.13v35.62l13.09-11.9c2.26-2,2.12-3.52-.49-3.73v-1.55H291v1.55c-3,.42-4.86,1.9-7.32,4.16l-6.06,5.63,12.18,16.26C291.65,245.31,293.13,246.57,295.25,247.07Z"/><path class="cls-1" d="M335.52,247.07v1.55h-14v-1.55c2.32-.28,2.32-1.76.42-4.23l-9-11.68-4.58,4.15v7.53c0,2.75.71,4,3.38,4.23v1.55h-14v-1.55c2.61-.21,3.31-1.48,3.31-4.23V205c0-2.74-.7-3.94-3.31-4.15v-1.55l9.51-2.53h1.12v35.62l13.1-11.9c2.25-2,2.11-3.52-.49-3.73v-1.55H331.3v1.55c-3,.42-4.86,1.9-7.33,4.16l-6.05,5.63,12.18,16.26C331.93,245.31,333.41,246.57,335.52,247.07Z"/><path class="cls-1" d="M352,247.07v1.55H338v-1.55c2.6-.21,3.31-1.48,3.31-4.23v-20c0-2.75-.71-4-3.31-4.23v-1.55l9.57-2.46h1.13v28.23C348.69,245.59,349.4,246.86,352,247.07ZM339.54,205a4.93,4.93,0,1,1,4.93,4.72A4.6,4.6,0,0,1,339.54,205Z"/><rect class="cls-1" x="226" y="78.9" width="5.26" height="5.26"/><rect class="cls-1" x="220.74" y="84.16" width="5.26" height="5.26"/><rect class="cls-1" x="215.48" y="89.42" width="5.26" height="5.26"/><rect class="cls-1" x="210.21" y="94.68" width="5.26" height="5.26"/><rect class="cls-1" x="204.95" y="99.94" width="5.26" height="5.26"/><rect class="cls-1" x="199.68" y="105.2" width="5.26" height="5.26"/><rect class="cls-1" x="194.42" y="105.2" width="5.26" height="5.26"/><rect class="cls-1" x="189.16" y="105.2" width="5.26" height="5.26"/><rect class="cls-1" x="183.9" y="105.2" width="5.26" height="5.26"/><rect class="cls-1" x="178.63" y="105.2" width="5.26" height="5.26"/><rect class="cls-1" x="173.37" y="105.2" width="5.26" height="5.26"/><rect class="cls-1" x="173.37" y="99.94" width="5.26" height="5.26"/><rect class="cls-1" x="173.37" y="94.68" width="5.26" height="5.26"/><rect class="cls-1" x="173.37" y="89.42" width="5.26" height="5.26"/><rect class="cls-1" x="173.37" y="84.16" width="5.26" height="5.26"/><rect class="cls-1" x="173.37" y="78.9" width="5.26" height="5.26"/><rect class="cls-1" x="173.37" y="73.64" width="5.26" height="5.26"/><rect class="cls-1" x="173.37" y="68.38" width="5.26" height="5.26"/><rect class="cls-1" x="173.37" y="63.12" width="5.26" height="5.26"/><rect class="cls-1" x="173.37" y="57.86" width="5.26" height="5.26"/><rect class="cls-1" x="173.37" y="52.6" width="5.26" height="5.26"/><rect class="cls-1" x="168.1" y="105.2" width="5.26" height="5.26"/><rect class="cls-1" x="168.1" y="52.6" width="5.26" height="5.26"/><rect class="cls-1" x="168.1" y="47.34" width="5.26" height="5.26"/><rect class="cls-1" x="162.84" y="105.2" width="5.26" height="5.26"/><rect class="cls-1" x="157.58" y="105.2" width="5.26" height="5.26"/><rect class="cls-1" x="152.31" y="105.2" width="5.26" height="5.26"/><rect class="cls-1" x="147.05" y="105.2" width="5.26" height="5.26"/><rect class="cls-1" x="141.79" y="99.94" width="5.26" height="5.26"/><rect class="cls-1" x="136.53" y="94.68" width="5.26" height="5.26"/><rect class="cls-1" x="131.26" y="89.42" width="5.26" height="5.26"/><rect class="cls-1" x="126" y="84.16" width="5.26" height="5.26"/><rect class="cls-1" x="120.73" y="78.9" width="5.26" height="5.26"/><rect class="cls-1" x="236.53" y="63.12" width="5.26" height="5.26"/><rect class="cls-1" x="231.26" y="68.38" width="5.26" height="5.26"/><rect class="cls-1" x="231.26" y="63.12" width="5.26" height="5.26"/><rect class="cls-1" x="231.26" y="57.86" width="5.26" height="5.26"/><rect class="cls-1" x="226" y="73.64" width="5.26" height="5.26"/><rect class="cls-1" x="226" y="68.38" width="5.26" height="5.26"/><rect class="cls-1" x="226" y="57.86" width="5.26" height="5.26"/><rect class="cls-1" x="226" y="52.6" width="5.26" height="5.26"/><rect class="cls-1" x="220.74" y="68.38" width="5.26" height="5.26"/><rect class="cls-1" x="220.74" y="63.12" width="5.26" height="5.26"/><rect class="cls-1" x="220.74" y="57.86" width="5.26" height="5.26"/><rect class="cls-1" x="215.48" y="63.12" width="5.26" height="5.26"/><rect class="cls-1" x="189.16" y="26.3" width="5.26" height="5.26"/><rect class="cls-1" x="183.9" y="31.56" width="5.26" height="5.26"/><rect class="cls-1" x="183.9" y="26.3" width="5.26" height="5.26"/><rect class="cls-1" x="183.9" y="21.04" width="5.26" height="5.26"/><rect class="cls-1" x="178.63" y="36.82" width="5.26" height="5.26"/><rect class="cls-1" x="178.63" y="31.56" width="5.26" height="5.26"/><rect class="cls-1" x="178.63" y="26.3" width="5.26" height="5.26"/><rect class="cls-1" x="178.63" y="21.04" width="5.26" height="5.26"/><rect class="cls-1" x="178.63" y="15.78" width="5.26" height="5.26"/><rect class="cls-1" x="173.37" y="42.08" width="5.26" height="5.26"/><polygon class="cls-1" points="178.63 36.82 178.63 42.08 173.37 42.08 173.37 36.82 175.88 36.82 178.63 36.82"/><rect class="cls-1" x="175.88" y="31.56" width="2.76" height="5.26"/><rect class="cls-1" x="175.88" y="26.3" width="2.76" height="5.26"/><polygon class="cls-1" points="178.63 21.04 178.63 26.3 175.88 26.3 175.88 21.04 175.97 21.04 178.63 21.04"/><polygon class="cls-1" points="178.63 15.78 178.63 21.04 175.97 21.04 175.88 21.04 173.37 21.04 173.37 15.78 178.63 15.78"/><polygon class="cls-1" points="178.63 10.52 178.63 15.78 173.37 15.78 173.37 10.52 175.88 10.52 178.63 10.52"/><rect class="cls-1" x="173.37" y="5.26" width="2.51" height="5.26"/><rect class="cls-1" x="168.1" y="42.08" width="5.26" height="5.26"/><polygon class="cls-1" points="173.37 36.82 173.37 42.08 168.1 42.08 168.1 36.82 170.74 36.82 173.37 36.82"/><polygon class="cls-1" points="173.37 15.78 173.37 21.04 170.74 21.04 168.1 21.04 168.1 15.78 173.37 15.78"/><polygon class="cls-1" points="173.37 10.52 173.37 15.78 168.1 15.78 168.1 10.52 170.74 10.52 173.37 10.52"/><rect class="cls-1" x="170.74" y="5.26" width="2.63" height="5.26"/><rect class="cls-1" x="168.1" y="31.56" width="2.63" height="5.26"/><rect class="cls-1" x="168.1" y="26.3" width="2.63" height="5.26"/><rect class="cls-1" x="168.1" y="21.04" width="2.63" height="5.26"/><rect class="cls-1" x="162.84" y="36.82" width="5.26" height="5.26"/><rect class="cls-1" x="162.84" y="31.56" width="5.26" height="5.26"/><rect class="cls-1" x="162.84" y="26.3" width="5.26" height="5.26"/><rect class="cls-1" x="162.84" y="21.04" width="5.26" height="5.26"/><rect class="cls-1" x="162.84" y="15.78" width="5.26" height="5.26"/><rect class="cls-1" x="157.58" y="31.56" width="5.26" height="5.26"/><rect class="cls-1" x="157.58" y="26.3" width="5.26" height="5.26"/><rect class="cls-1" x="157.58" y="21.04" width="5.26" height="5.26"/><rect class="cls-1" x="152.31" y="26.3" width="5.26" height="5.26"/><rect class="cls-1" x="131.26" y="63.12" width="5.26" height="5.26"/><rect class="cls-1" x="126" y="68.38" width="5.26" height="5.26"/><rect class="cls-1" x="126" y="63.12" width="5.26" height="5.26"/><rect class="cls-1" x="126" y="57.86" width="5.26" height="5.26"/><rect class="cls-1" x="120.73" y="73.64" width="5.26" height="5.26"/><rect class="cls-1" x="120.73" y="68.38" width="5.26" height="5.26"/><rect class="cls-1" x="120.73" y="57.86" width="5.26" height="5.26"/><rect class="cls-1" x="120.73" y="52.6" width="5.26" height="5.26"/><rect class="cls-1" x="115.47" y="68.38" width="5.26" height="5.26"/><rect class="cls-1" x="115.47" y="63.12" width="5.26" height="5.26"/><rect class="cls-1" x="115.47" y="57.86" width="5.26" height="5.26"/><rect class="cls-1" x="110.21" y="63.12" width="5.26" height="5.26"/><rect class="cls-1" x="247.05" y="63.12" width="5.26" height="5.26"/><rect class="cls-1" x="247.05" y="57.86" width="5.26" height="5.26"/><rect class="cls-1" x="252.32" y="57.86" width="5.26" height="5.26"/><rect class="cls-1" x="252.32" y="52.6" width="5.26" height="5.26"/><rect class="cls-1" x="257.58" y="52.6" width="5.26" height="5.26"/><rect class="cls-1" x="241.79" y="63.12" width="5.26" height="5.26"/><rect class="cls-1" x="247.05" y="36.82" width="5.26" height="5.26"/><rect class="cls-1" x="241.79" y="42.08" width="5.26" height="5.26"/><rect class="cls-1" x="241.79" y="36.82" width="5.26" height="5.26"/><rect class="cls-1" x="236.53" y="47.34" width="5.26" height="5.26"/><rect class="cls-1" x="236.53" y="42.08" width="5.26" height="5.26"/><rect class="cls-1" x="231.26" y="47.34" width="5.26" height="5.26"/><rect class="cls-1" x="241.79" y="84.16" width="5.26" height="5.26"/><rect class="cls-1" x="236.53" y="89.42" width="5.26" height="5.26"/><rect class="cls-1" x="236.53" y="84.16" width="5.26" height="5.26"/><rect class="cls-1" x="231.26" y="94.68" width="5.26" height="5.26"/><rect class="cls-1" x="231.26" y="89.42" width="5.26" height="5.26"/><rect class="cls-1" x="231.26" y="84.16" width="5.26" height="5.26"/><rect class="cls-1" x="226" y="94.68" width="5.26" height="5.26"/><rect class="cls-1" x="226" y="89.42" width="5.26" height="5.26"/><rect class="cls-1" x="220.74" y="94.68" width="5.26" height="5.26"/><rect class="cls-1" x="215.48" y="94.68" width="5.26" height="5.26"/><rect class="cls-1" x="220.74" y="47.34" width="5.26" height="5.26"/><rect class="cls-1" x="215.48" y="47.34" width="5.26" height="5.26"/><rect class="cls-1" x="215.48" y="42.08" width="5.26" height="5.26"/><rect class="cls-1" x="210.21" y="42.08" width="5.26" height="5.26"/><rect class="cls-1" x="210.21" y="36.82" width="5.26" height="5.26"/><rect class="cls-1" x="204.95" y="36.82" width="5.26" height="5.26"/><rect class="cls-1" x="210.21" y="10.52" width="5.26" height="5.26"/><rect class="cls-1" x="204.95" y="15.78" width="5.26" height="5.26"/><rect class="cls-1" x="204.95" y="10.52" width="5.26" height="5.26"/><rect class="cls-1" x="199.68" y="21.04" width="5.26" height="5.26"/><rect class="cls-1" x="199.68" y="15.78" width="5.26" height="5.26"/><rect class="cls-1" x="199.68" y="10.52" width="5.26" height="5.26"/><rect class="cls-1" x="194.42" y="21.04" width="5.26" height="5.26"/><rect class="cls-1" x="194.42" y="15.78" width="5.26" height="5.26"/><rect class="cls-1" x="189.16" y="21.04" width="5.26" height="5.26"/><rect class="cls-1" x="199.68" y="84.16" width="5.26" height="5.26"/><rect class="cls-1" x="194.42" y="89.42" width="5.26" height="5.26"/><rect class="cls-1" x="194.42" y="84.16" width="5.26" height="5.26"/><rect class="cls-1" x="189.16" y="94.68" width="5.26" height="5.26"/><rect class="cls-1" x="189.16" y="89.42" width="5.26" height="5.26"/><rect class="cls-1" x="189.16" y="84.16" width="5.26" height="5.26"/><rect class="cls-1" x="183.9" y="94.68" width="5.26" height="5.26"/><rect class="cls-1" x="183.9" y="89.42" width="5.26" height="5.26"/><rect class="cls-1" x="178.63" y="94.68" width="5.26" height="5.26"/><rect class="cls-1" x="199.68" y="63.12" width="5.26" height="5.26"/><rect class="cls-1" x="194.42" y="68.38" width="5.26" height="5.26"/><rect class="cls-1" x="194.42" y="63.12" width="5.26" height="5.26"/><rect class="cls-1" x="189.16" y="73.64" width="5.26" height="5.26"/><rect class="cls-1" x="189.16" y="68.38" width="5.26" height="5.26"/><rect class="cls-1" x="189.16" y="63.12" width="5.26" height="5.26"/><rect class="cls-1" x="183.9" y="73.64" width="5.26" height="5.26"/><rect class="cls-1" x="183.9" y="68.38" width="5.26" height="5.26"/><rect class="cls-1" x="178.63" y="73.64" width="5.26" height="5.26"/><rect class="cls-1" x="183.9" width="5.26" height="5.26"/><rect class="cls-1" x="178.63" width="5.26" height="5.26"/><polygon class="cls-1" points="178.63 0 178.63 5.26 175.88 5.26 173.37 5.26 173.37 0 178.63 0"/><polygon class="cls-1" points="173.37 0 173.37 5.26 170.74 5.26 168.1 5.26 168.1 0 173.37 0"/><rect class="cls-1" x="162.84" width="5.26" height="5.26"/><rect class="cls-1" x="157.58" width="5.26" height="5.26"/><rect class="cls-1" x="168.1" y="94.68" width="5.26" height="5.26"/><rect class="cls-1" x="162.84" y="94.68" width="5.26" height="5.26"/><rect class="cls-1" x="162.84" y="89.42" width="5.26" height="5.26"/><rect class="cls-1" x="157.58" y="94.68" width="5.26" height="5.26"/><rect class="cls-1" x="157.58" y="89.42" width="5.26" height="5.26"/><rect class="cls-1" x="157.58" y="84.16" width="5.26" height="5.26"/><rect class="cls-1" x="152.31" y="89.42" width="5.26" height="5.26"/><rect class="cls-1" x="152.31" y="84.16" width="5.26" height="5.26"/><rect class="cls-1" x="147.05" y="84.16" width="5.26" height="5.26"/><rect class="cls-1" x="168.1" y="73.64" width="5.26" height="5.26"/><rect class="cls-1" x="162.84" y="73.64" width="5.26" height="5.26"/><rect class="cls-1" x="162.84" y="68.38" width="5.26" height="5.26"/><rect class="cls-1" x="157.58" y="73.64" width="5.26" height="5.26"/><rect class="cls-1" x="157.58" y="68.38" width="5.26" height="5.26"/><rect class="cls-1" x="157.58" y="63.12" width="5.26" height="5.26"/><rect class="cls-1" x="152.31" y="68.38" width="5.26" height="5.26"/><rect class="cls-1" x="152.31" y="63.12" width="5.26" height="5.26"/><rect class="cls-1" x="147.05" y="63.12" width="5.26" height="5.26"/><rect class="cls-1" x="152.31" y="21.04" width="5.26" height="5.26"/><rect class="cls-1" x="147.05" y="21.04" width="5.26" height="5.26"/><rect class="cls-1" x="147.05" y="15.78" width="5.26" height="5.26"/><rect class="cls-1" x="141.79" y="21.04" width="5.26" height="5.26"/><rect class="cls-1" x="141.79" y="15.78" width="5.26" height="5.26"/><rect class="cls-1" x="141.79" y="10.52" width="5.26" height="5.26"/><rect class="cls-1" x="136.53" y="15.78" width="5.26" height="5.26"/><rect class="cls-1" x="136.53" y="10.52" width="5.26" height="5.26"/><rect class="cls-1" x="131.26" y="10.52" width="5.26" height="5.26"/><rect class="cls-1" x="141.79" y="36.82" width="5.26" height="5.26"/><rect class="cls-1" x="136.53" y="42.08" width="5.26" height="5.26"/><rect class="cls-1" x="136.53" y="36.82" width="5.26" height="5.26"/><rect class="cls-1" x="131.26" y="47.34" width="5.26" height="5.26"/><rect class="cls-1" x="131.26" y="42.08" width="5.26" height="5.26"/><rect class="cls-1" x="126" y="47.34" width="5.26" height="5.26"/><rect class="cls-1" x="131.26" y="94.68" width="5.26" height="5.26"/><rect class="cls-1" x="126" y="94.68" width="5.26" height="5.26"/><rect class="cls-1" x="120.73" y="94.68" width="5.26" height="5.26"/><rect class="cls-1" x="120.73" y="89.42" width="5.26" height="5.26"/><rect class="cls-1" x="115.47" y="94.68" width="5.26" height="5.26"/><rect class="cls-1" x="115.47" y="89.42" width="5.26" height="5.26"/><rect class="cls-1" x="115.47" y="84.16" width="5.26" height="5.26"/><rect class="cls-1" x="110.21" y="89.42" width="5.26" height="5.26"/><rect class="cls-1" x="110.21" y="84.16" width="5.26" height="5.26"/><rect class="cls-1" x="104.95" y="84.16" width="5.26" height="5.26"/><rect class="cls-1" x="115.47" y="47.34" width="5.26" height="5.26"/><rect class="cls-1" x="110.21" y="47.34" width="5.26" height="5.26"/><rect class="cls-1" x="110.21" y="42.08" width="5.26" height="5.26"/><rect class="cls-1" x="104.95" y="42.08" width="5.26" height="5.26"/><rect class="cls-1" x="104.95" y="36.82" width="5.26" height="5.26"/><rect class="cls-1" x="99.68" y="36.82" width="5.26" height="5.26"/><rect class="cls-1" x="104.95" y="63.12" width="5.26" height="5.26"/><rect class="cls-1" x="99.68" y="63.12" width="5.26" height="5.26"/><rect class="cls-1" x="99.68" y="57.86" width="5.26" height="5.26"/><rect class="cls-1" x="94.42" y="57.86" width="5.26" height="5.26"/><rect class="cls-1" x="94.42" y="52.6" width="5.26" height="5.26"/><rect class="cls-1" x="89.15" y="52.6" width="5.26" height="5.26"/></svg>